# xmcd CD database file
#
# Track frame offsets:
#	150
#	12460
#	24285
#	34500
#	49112
#	65945
#	75725
#	88779
#	99642
#	114092
#	122557
#	137607
#	148282
#	159582
#
# Disc length: 2282 seconds
#
# Revision: 3
# Processed by: cddbd v1.5.2PL0 Copyright (c) Steve Scherf et al.
# Submitted via: CDex 1.51
#
DISCID=b808e80e
DTITLE=Brenda and The Tabulations - Dry Your Eyes [1997 Reissue]
DYEAR=1967
DGENRE=Soul
TTITLE0=Dry Your Eyes
TTITLE1=Walk On By
TTITLE2=God Only Knows
TTITLE3=Who's Lovin' You
TTITLE4=Summertime
TTITLE5=Where Did Our Love Go
TTITLE6=Just Once In A Lifetime
TTITLE7=Forever
TTITLE8=Stay Together Young Lovers
TTITLE9=Hey Boy
TTITLE10=Oh Lord What Are You Doing To Me
TTITLE11=The Wash
TTITLE12=That's In The Past [Bonus Track]
TTITLE13=When You're Gone [Bonus Track]
EXTD=YEAR: 1967
EXTT0=
EXTT1=
EXTT2=
EXTT3=
EXTT4=
EXTT5=
EXTT6=
EXTT7=
EXTT8=
EXTT9=
EXTT10=
EXTT11=
EXTT12=
EXTT13=
PLAYORDER=
